<svg width="20" height="19" viewBox="0 0 20 19" fill="none" xmlns="http://www.w3.org/2000/svg">
<path d="M19.528 10.0363L10.9101 0.33687C10.8156 0.229749 10.7029 0.144765 10.5785 0.0869151C10.4542 0.0290652 10.3207 -0.000483483 10.186 5.98274e-06H1.48821C0.667798 -0.00113593 0 0.735397 0 1.64322V7.62683C0 7.92715 0.105496 8.2092 0.297027 8.42274L8.90568 17.9052C9.186 18.2129 9.56363 18.3854 9.95705 18.3854C10.3505 18.3854 10.7281 18.2129 11.0084 17.9052L11.6885 17.1549L12.3676 17.9052C12.6479 18.2129 13.0255 18.3854 13.4189 18.3854C13.8124 18.3854 14.19 18.2129 14.4703 17.9052L19.5167 12.3463C19.6536 12.1955 19.7624 12.0161 19.837 11.8184C19.9117 11.6206 19.9506 11.4084 19.9517 11.1939C19.9527 10.9794 19.9158 10.7667 19.8431 10.5681C19.7704 10.3694 19.6633 10.1887 19.528 10.0363ZM4.41955 7.22716C3.92788 7.22716 3.45634 7.0094 3.10868 6.62179C2.76101 6.23418 2.5657 5.70847 2.5657 5.1603C2.5657 4.61214 2.76101 4.08642 3.10868 3.69881C3.45634 3.3112 3.92788 3.09344 4.41955 3.09344C4.91122 3.09344 5.38276 3.3112 5.73043 3.69881C6.07809 4.08642 6.27341 4.61214 6.27341 5.1603C6.27341 5.70847 6.07809 6.23418 5.73043 6.62179C5.38276 7.0094 4.91122 7.22716 4.41955 7.22716ZM18.5508 11.257L13.5055 16.8158C13.4942 16.8283 13.4808 16.8381 13.466 16.8446C13.4512 16.8511 13.4354 16.8541 13.4195 16.8535C13.3872 16.8538 13.356 16.8403 13.3324 16.8158L12.5622 15.9673L15.9544 12.231C16.4747 11.6578 16.4768 10.7294 15.9636 10.1482L8.30548 1.52902H10.0395L18.5508 11.1131C18.5593 11.1225 18.566 11.1338 18.5706 11.1461C18.5752 11.1584 18.5775 11.1717 18.5775 11.185C18.5791 11.1987 18.5775 11.2127 18.5728 11.2255C18.5681 11.2383 18.5606 11.2495 18.5508 11.2581V11.257ZM4.42058 4.46716C4.25513 4.46746 4.09653 4.54079 3.97945 4.67111C3.86237 4.80143 3.79634 4.97814 3.7958 5.16259C3.7958 5.54513 4.07746 5.85915 4.42058 5.85915C4.76369 5.85915 5.04536 5.54513 5.04536 5.16259C5.04508 4.97794 4.97917 4.80094 4.86206 4.67037C4.74495 4.53981 4.58619 4.46632 4.42058 4.46602V4.46716Z" fill="white"/>
</svg>
