<svg width="21" height="21" viewBox="0 0 21 21" fill="none" xmlns="http://www.w3.org/2000/svg">
<path d="M18.874 0H2.0964C0.938569 0 0 0.938569 0 2.09619V12.5787C0 13.7363 0.938569 14.6749 2.0964 14.6749H5.76697L10.4852 20.9641L15.2034 14.6749H18.874C20.0317 14.6749 20.9704 13.7363 20.9704 12.5787V2.09619C20.9704 0.938569 20.0317 0 18.874 0ZM4.725 8.09813C3.85515 8.09813 3.15 7.39297 3.15 6.52312C3.15 5.65328 3.85515 4.94812 4.725 4.94812C5.59485 4.94812 6.3 5.65328 6.3 6.52312C6.3 7.39297 5.59485 8.09813 4.725 8.09813ZM10.5 8.09813C9.63015 8.09813 8.925 7.39297 8.925 6.52312C8.925 5.65328 9.63015 4.94812 10.5 4.94812C11.3698 4.94812 12.075 5.65328 12.075 6.52312C12.075 7.39297 11.3698 8.09813 10.5 8.09813ZM16.275 8.09813C15.4052 8.09813 14.7 7.39297 14.7 6.52312C14.7 5.65328 15.4052 4.94812 16.275 4.94812C17.1448 4.94812 17.85 5.65328 17.85 6.52312C17.85 7.39297 17.1448 8.09813 16.275 8.09813Z" fill="white"/>
</svg>
