<svg width="23" height="21" viewBox="0 0 23 21" fill="none" xmlns="http://www.w3.org/2000/svg">
<path d="M20.2631 17.943V3.44297C20.2631 2.67384 19.9681 1.93621 19.443 1.39236C18.9179 0.848504 18.2057 0.542969 17.4631 0.542969H3.46309C2.72048 0.542969 2.00829 0.848504 1.48319 1.39236C0.958085 1.93621 0.663086 2.67384 0.663086 3.44297V17.943C0.663086 18.7121 0.958085 19.4497 1.48319 19.9936C2.00829 20.5374 2.72048 20.843 3.46309 20.843H17.4631C18.2057 20.843 18.9179 20.5374 19.443 19.9936C19.9681 19.4497 20.2631 18.7121 20.2631 17.943ZM4.72309 4.16797H10.3444C10.5671 4.16797 10.7808 4.25963 10.9383 4.42279C11.0959 4.58594 11.1844 4.80723 11.1844 5.03797C11.1844 5.26871 11.0959 5.48999 10.9383 5.65315C10.7808 5.81631 10.5671 5.90797 10.3444 5.90797H4.72309C4.5003 5.90797 4.28665 5.81631 4.12912 5.65315C3.97159 5.48999 3.88309 5.26871 3.88309 5.03797C3.88309 4.80723 3.97159 4.58594 4.12912 4.42279C4.28665 4.25963 4.5003 4.16797 4.72309 4.16797ZM4.72309 7.93797H10.3231C10.5459 7.93797 10.7595 8.02963 10.9171 8.19279C11.0746 8.35594 11.1631 8.57723 11.1631 8.80797C11.1631 9.03871 11.0746 9.25999 10.9171 9.42315C10.7595 9.58631 10.5459 9.67797 10.3231 9.67797H4.72309C4.5003 9.67797 4.28665 9.58631 4.12912 9.42315C3.97159 9.25999 3.88309 9.03871 3.88309 8.80797C3.88309 8.57723 3.97159 8.35594 4.12912 8.19279C4.28665 8.02963 4.5003 7.93797 4.72309 7.93797ZM16.2031 17.218H4.72309C4.5003 17.218 4.28665 17.1263 4.12912 16.9632C3.97159 16.8 3.88309 16.5787 3.88309 16.348C3.88309 16.1172 3.97159 15.8959 4.12912 15.7328C4.28665 15.5696 4.5003 15.478 4.72309 15.478H16.2031C16.4259 15.478 16.6395 15.5696 16.7971 15.7328C16.9546 15.8959 17.0431 16.1172 17.0431 16.348C17.0431 16.5787 16.9546 16.8 16.7971 16.9632C16.6395 17.1263 16.4259 17.218 16.2031 17.218ZM16.2031 13.448H4.72309C4.61278 13.448 4.50355 13.4255 4.40163 13.3817C4.29972 13.338 4.20712 13.2739 4.12912 13.1932C4.05111 13.1124 3.98924 13.0165 3.94703 12.9109C3.90481 12.8054 3.88309 12.6922 3.88309 12.578C3.88309 12.4637 3.90481 12.3506 3.94703 12.245C3.98924 12.1395 4.05111 12.0436 4.12912 11.9628C4.20712 11.882 4.29972 11.8179 4.40163 11.7742C4.50355 11.7305 4.61278 11.708 4.72309 11.708H16.2031C16.4259 11.708 16.6395 11.7996 16.7971 11.9628C16.9546 12.1259 17.0431 12.3472 17.0431 12.578C17.0431 12.8087 16.9546 13.03 16.7971 13.1932C16.6395 13.3563 16.4259 13.448 16.2031 13.448ZM18.2118 6.33659L15.4684 9.17917C15.4072 9.24271 15.3346 9.29313 15.2546 9.32756C15.1746 9.36198 15.0889 9.37973 15.0023 9.37978C14.9157 9.37984 14.8299 9.3622 14.7499 9.32787C14.6699 9.29355 14.5972 9.24321 14.536 9.17975L12.8369 7.42293C12.7178 7.29396 12.6521 7.12183 12.654 6.94337C12.6558 6.7649 12.725 6.59426 12.8467 6.46794C12.9685 6.34162 13.1331 6.26966 13.3054 6.26744C13.4777 6.26522 13.644 6.33292 13.7688 6.45607L15.0013 7.73033L17.2788 5.37031C17.4026 5.24217 17.5704 5.17019 17.7453 5.17019C17.9203 5.17019 18.0881 5.24217 18.2118 5.37031C18.3355 5.49845 18.405 5.67224 18.405 5.85345C18.405 6.03466 18.3355 6.20845 18.2118 6.33659ZM22.2231 5.45267V18.2782C22.2231 18.9586 21.9621 19.6111 21.4976 20.0922C21.0331 20.5733 20.4031 20.8435 19.7462 20.8435H18.3501C19.0927 20.8435 19.8049 20.538 20.33 19.9942C20.8551 19.4503 21.1501 18.7127 21.1501 17.9435V3.44355C21.1501 3.40585 21.1406 3.37047 21.1389 3.33277C21.4731 3.56754 21.7466 3.88351 21.9356 4.25306C22.1246 4.62261 22.2233 5.03448 22.2231 5.45267Z" fill="white"/>
</svg>
